# xmcd
#
# Track frame offsets: 
#        150
#        14448
#        22792
#        34637
#        52285
#        67704
#        78082
#        90639
#        101926
#        116783
#        131031
#        144526
#
# Disc length: 2065 seconds
#
# Revision: 0
# Processed by: cddbd v1.5.2PL0 Copyright (c) Steve Scherf et al.
# Submitted via: ExactAudioCopy v0.99pb3
#
DISCID=9b080f0c
DTITLE=Memphis Slim -  Lord Have Mercy on Me
DYEAR=1968
DGENRE=Blues
TTITLE0=Messin' Around
TTITLE1=Big Town Girl
TTITLE2=Wish Me Well
TTITLE3=Alberta
TTITLE4=Three in One Boogie
TTITLE5=San Juan Blues
TTITLE6=Sweet Root Man
TTITLE7=Lord Have Mercy on Me
TTITLE8=Whiskey Drinking Man
TTITLE9=Between Midnight and Dawn
TTITLE10=Blue and Lonesome
TTITLE11=Misery
EXTD=
EXTT0=
EXTT1=
EXTT2=
EXTT3=
EXTT4=
EXTT5=
EXTT6=
EXTT7=
EXTT8=
EXTT9=
EXTT10=
EXTT11=
PLAYORDER=
